<svg xmlns="http://www.w3.org/2000/svg" viewBox="0 0 900 980" role="img" aria-labelledby="title">
  <title id="title">Ilustração editorial de um workspace criativo</title>
  <rect width="900" height="980" fill="#24342f"/>
  <rect x="72" y="78" width="756" height="824" rx="44" fill="#fffaf1"/>
  <rect x="138" y="154" width="624" height="356" rx="28" fill="#1f2e2a"/>
  <rect x="184" y="204" width="210" height="26" rx="13" fill="#d7b56d"/>
  <rect x="184" y="270" width="464" height="18" rx="9" fill="#7d9b8c"/>
  <rect x="184" y="320" width="330" height="18" rx="9" fill="#7d9b8c"/>
  <rect x="184" y="370" width="414" height="18" rx="9" fill="#7d9b8c"/>
  <circle cx="658" cy="408" r="58" fill="#b75f4b"/>
  <rect x="138" y="580" width="292" height="220" rx="28" fill="#b75f4b"/>
  <rect x="470" y="580" width="292" height="220" rx="28" fill="#d7b56d"/>
  <path d="M194 744c62-78 124-78 186 0" fill="none" stroke="#fffaf1" stroke-width="18" stroke-linecap="round"/>
  <path d="M544 720 618 622l72 98z" fill="#24342f"/>
  <rect x="250" y="850" width="400" height="18" rx="9" fill="#24342f" opacity=".28"/>
</svg>
